# xmcd CD database file
#
# Track frame offsets:
#	182
#	13895
#	34762
#	50314
#	62932
#	80897
#	95990
#	108952
#	124345
#	136970
#	151660
#	163445
#	175307
#	192140
#	208337
#	223035
#
# Disc length: 3159 seconds
#
# Revision: 0
# Processed by: cddbd v1.5.2PL0 Copyright (c) Steve Scherf et al.
# Submitted via: CDex 1.70beta2
#
DISCID=f30c5510
DTITLE=Various Artist - Famous Bandleader
DYEAR=1995
DGENRE=Jazz
TTITLE0=BENNY GOODMAN TRIO - Oh Lady Be Good
TTITLE1=DUKE ELLINGTON AND HIS ORCHESTRA - Take The "A" Train
TTITLE2=BARRY MANILOW/TOMMY DORSEY - On The Sunny Side Of The Street
TTITLE3=LIONEL HAMPTON - l'm In The Mood For Swing
TTITLE4=LOUIS ARMSTRONG/JACKTEAGARDEN, VOC. - Aint Misbehavin'
TTITLE5=COUNT BASIE and HIS ORCHESTRA - Cheek To Cheek
TTITLE6=SIDNEYBECHET and HIS NEW ORLEANS FEETWARMERS - Slippin' And Slidin'
TTITLE7=GLENN MILLER - Moonlight Serenade
TTITLE8=BENNY GOODMAN TRIO - After You've Gone
TTITLE9=ARTIE SHAW - Smoke Gels In Your Eyes
TTITLE10=COUNT BASIE and HIS ORCHESTRA - Shoutin' Blues
TTITLE11=DUKE ELLINGTON and HIS ORCHESTRA - l Got It Bad (And That Ain't Good)
TTITLE12=SIDNEY BECHET, MILTON "MEZZ" MEZZROW, ALBERT NKHOLAS - High Society
TTITLE13=GLENN MILLER, TEX BENEKE, AL KLINK, CLYDE HURLEY - In The Mood
TTITLE14=TOMMY DORSEY and HIS ORCHESTRA - Easy Does it
TTITLE15=FATS WALLER and HIS RHYTHM - Fat And Greasy
EXTD=YEAR: 1995
EXTT0=
EXTT1=
EXTT2=
EXTT3=
EXTT4=
EXTT5=
EXTT6=
EXTT7=
EXTT8=
EXTT9=
EXTT10=
EXTT11=
EXTT12=
EXTT13=
EXTT14=
EXTT15=
PLAYORDER=
